PathFileType  4	(X/Y/Z) /root/TVB/SAM4Dcap/opencap/output/Data/subject2_Session0/MarkerData/mmpose_0.8/2-cameras/PreAugmentation
DataRate	CameraRate	NumFrames	NumMarkers	Units	OrigDataRate	OrigDataStartFrame	OrigNumFrames
60.0	60.0	16	20	m	60.0	21	164
Frame#	Time	Neck			RShoulder			RElbow			RWrist			LShoulder			LElbow			LWrist			midHip			RHip			RKnee			RAnkle			LHip			LKnee			LAnkle			LBigToe			LSmallToe			LHeel			RBigToe			RSmallToe			RHeel			
		X1	Y1	Z1	X2	Y2	Z2	X3	Y3	Z3	X4	Y4	Z4	X5	Y5	Z5	X6	Y6	Z6	X7	Y7	Z7	X8	Y8	Z8	X9	Y9	Z9	X10	Y10	Z10	X11	Y11	Z11	X12	Y12	Z12	X13	Y13	Z13	X14	Y14	Z14	X15	Y15	Z15	X16	Y16	Z16	X17	Y17	Z17	X18	Y18	Z18	X19	Y19	Z19	X20	Y20	Z20	

21	0.3333333	0.1101800	1.3632900	-0.3212200	0.1245700	1.3591600	-0.1577200	-0.0632300	1.1309500	-0.0321200	-0.0180800	0.8519800	0.0347800	0.1118600	1.3649900	-0.4859800	-0.0793100	1.1403300	-0.5940300	-0.0605800	0.8694100	-0.6341200	0.0029600	0.8511500	-0.3033200	0.0101600	0.8536800	-0.1860500	0.0358200	0.3975100	-0.1810500	-0.0896200	-0.0875400	-0.1845900	0.0041500	0.8486100	-0.4212900	0.0386000	0.3959400	-0.4178900	-0.0974900	-0.0936700	-0.3899700	0.0590400	-0.1511600	-0.4402100	0.0497700	-0.1491600	-0.4400500	-0.1308900	-0.1273000	-0.3726000	0.0675300	-0.1523500	-0.1528300	0.0587100	-0.1503900	-0.1523000	-0.1213700	-0.1235800	-0.1990500
22	0.3500000	0.1191500	1.3621500	-0.3213400	0.1332700	1.3561700	-0.1574300	-0.0657600	1.1348500	-0.0276200	-0.0232200	0.8549900	0.0381100	0.1212000	1.3658200	-0.4864800	-0.0834000	1.1462100	-0.5968600	-0.0665300	0.8757400	-0.6394600	0.0012900	0.8443900	-0.3036300	0.0091600	0.8456200	-0.1873800	0.0347600	0.4009800	-0.1832000	-0.0778700	-0.0881400	-0.1754000	0.0016900	0.8428500	-0.4205700	0.0375000	0.3965400	-0.4167500	-0.0973700	-0.0914100	-0.3930500	0.0696400	-0.1430400	-0.4504000	0.0606500	-0.1417300	-0.4490300	-0.1271000	-0.1250500	-0.3762600	0.0662600	-0.1559100	-0.1532200	0.0574500	-0.1538900	-0.1526600	-0.1086900	-0.1235400	-0.1844700
23	0.3666667	0.1242900	1.3597800	-0.3210900	0.1380500	1.3545300	-0.1564300	-0.0671500	1.1433400	-0.0256000	-0.0314700	0.8602000	0.0404800	0.1268400	1.3627900	-0.4869800	-0.0877900	1.1502400	-0.5981000	-0.0797000	0.8817100	-0.6431300	0.0018200	0.8459500	-0.3025700	0.0098200	0.8477500	-0.1873400	0.0347400	0.4012900	-0.1828800	-0.0869600	-0.0894200	-0.1803600	0.0019400	0.8439200	-0.4184900	0.0370300	0.3980700	-0.4155700	-0.0960500	-0.0909500	-0.3903600	0.0729800	-0.1420500	-0.4516100	0.0630700	-0.1406500	-0.4507900	-0.1253800	-0.1244600	-0.3733300	0.0648200	-0.1538400	-0.1533100	0.0555600	-0.1518500	-0.1528700	-0.1210100	-0.1261400	-0.1884000
24	0.3833333	0.1322000	1.3597000	-0.3208300	0.1480000	1.3529000	-0.1571300	-0.0662700	1.1491300	-0.0249900	-0.0380800	0.8658600	0.0424600	0.1325100	1.3642300	-0.4858200	-0.0904300	1.1562900	-0.6006600	-0.0936600	0.8880100	-0.6443600	-0.0003100	0.8448000	-0.3012900	0.0058700	0.8474600	-0.1862400	0.0334500	0.4004300	-0.1838300	-0.0829400	-0.0896300	-0.1805500	0.0016200	0.8419300	-0.4169900	0.0377600	0.4008300	-0.4162000	-0.0948100	-0.0910600	-0.3927400	0.0667300	-0.1445100	-0.4475700	0.0577900	-0.1431200	-0.4464700	-0.1247100	-0.1249600	-0.3764100	0.0638900	-0.1553000	-0.1506100	0.0549800	-0.1531800	-0.1503900	-0.1125700	-0.1246500	-0.1939500
25	0.4000000	0.1367800	1.3579100	-0.3224000	0.1495000	1.3530300	-0.1583800	-0.0654300	1.1499400	-0.0195700	-0.0456800	0.8715900	0.0452100	0.1402600	1.3607600	-0.4876000	-0.0900600	1.1632200	-0.6022200	-0.1014300	0.8960600	-0.6492900	0.0000600	0.8457300	-0.3023000	0.0082900	0.8470300	-0.1880400	0.0314600	0.3982300	-0.1824600	-0.0873800	-0.0860700	-0.1791700	-0.0001800	0.8443600	-0.4172600	0.0334800	0.3981200	-0.4133000	-0.1005600	-0.0778700	-0.3938000	0.0615000	-0.1397600	-0.4557000	0.0522600	-0.1378500	-0.4548000	-0.1262200	-0.1101800	-0.3769000	0.0616400	-0.1522800	-0.1549400	0.0522300	-0.1503600	-0.1545800	-0.1248600	-0.1239000	-0.1867600
26	0.4166667	0.1429200	1.3566400	-0.3226300	0.1547100	1.3524600	-0.1589900	-0.0628200	1.1535400	-0.0196600	-0.0519800	0.8781600	0.0467400	0.1472200	1.3585800	-0.4874300	-0.0898600	1.1662200	-0.6059100	-0.1125100	0.9037800	-0.6500400	-0.0013600	0.8475100	-0.3014700	0.0060600	0.8496300	-0.1876500	0.0331200	0.3997600	-0.1825200	-0.0858700	-0.0876800	-0.1802000	-0.0008600	0.8452100	-0.4159800	0.0338600	0.3994600	-0.4135200	-0.0980300	-0.0837500	-0.3923100	0.0666900	-0.1398500	-0.4499000	0.0576800	-0.1387000	-0.4490200	-0.1260300	-0.1177500	-0.3760000	0.0667300	-0.1513900	-0.1501100	0.0579300	-0.1496600	-0.1497600	-0.1257900	-0.1271800	-0.1903100
27	0.4333333	0.1526000	1.3540500	-0.3215300	0.1641800	1.3482900	-0.1560300	-0.0626900	1.1621600	-0.0181500	-0.0571200	0.8848200	0.0477100	0.1574400	1.3573700	-0.4881900	-0.0896800	1.1702900	-0.6077800	-0.1221000	0.9129500	-0.6521700	-0.0028600	0.8501400	-0.3008700	0.0049600	0.8521500	-0.1876600	0.0292700	0.4017500	-0.1838300	-0.0842700	-0.0880600	-0.1795100	-0.0028200	0.8480200	-0.4147800	0.0346900	0.4010200	-0.4110100	-0.0959100	-0.0823900	-0.3915400	0.0766600	-0.1410100	-0.4474000	0.0670400	-0.1394500	-0.4468500	-0.1258200	-0.1181100	-0.3740200	0.0676400	-0.1524700	-0.1525200	0.0587500	-0.1504300	-0.1518800	-0.1173900	-0.1248600	-0.1867500
28	0.4500000	0.1568800	1.3502700	-0.3220600	0.1685500	1.3449700	-0.1556200	-0.0583200	1.1608500	-0.0157900	-0.0615000	0.8895600	0.0490600	0.1618000	1.3531500	-0.4896700	-0.0917300	1.1707800	-0.6098600	-0.1320800	0.9181600	-0.6534700	-0.0032800	0.8462500	-0.3020600	0.0028700	0.8477000	-0.1887000	0.0320800	0.4016300	-0.1842300	-0.0827600	-0.0870900	-0.1792400	-0.0015300	0.8446100	-0.4160900	0.0345500	0.4015500	-0.4121400	-0.0977400	-0.0880900	-0.3917900	0.0712200	-0.1416600	-0.4442600	0.0622300	-0.1404100	-0.4434300	-0.1278300	-0.1243100	-0.3757800	0.0645800	-0.1522300	-0.1488100	0.0560300	-0.1501200	-0.1484100	-0.1147400	-0.1236000	-0.1888000
29	0.4666667	0.1663200	1.3474300	-0.3228100	0.1777400	1.3416700	-0.1569800	-0.0551700	1.1650800	-0.0164000	-0.0657700	0.8957000	0.0502700	0.1713500	1.3508500	-0.4897900	-0.0908000	1.1720300	-0.6110400	-0.1393200	0.9209600	-0.6545900	-0.0020100	0.8469700	-0.3014800	0.0036700	0.8479900	-0.1886400	0.0343100	0.3998400	-0.1857900	-0.0861000	-0.0861600	-0.1819100	0.0001500	0.8457900	-0.4149600	0.0364700	0.4047800	-0.4108700	-0.1002000	-0.0811400	-0.3909900	0.0698600	-0.1408600	-0.4447100	0.0601100	-0.1393400	-0.4441900	-0.1288900	-0.1182800	-0.3748000	0.0629800	-0.1512300	-0.1513100	0.0542400	-0.1490600	-0.1510100	-0.1185900	-0.1226100	-0.1917100
30	0.4833333	0.1745000	1.3432700	-0.3238900	0.1850700	1.3379100	-0.1576600	-0.0537900	1.1672400	-0.0161500	-0.0639300	0.8977700	0.0497700	0.1805000	1.3466000	-0.4912300	-0.0881800	1.1694300	-0.6118500	-0.1378600	0.9257200	-0.6564500	-0.0064700	0.8436000	-0.3019600	0.0010100	0.8455100	-0.1892400	0.0393700	0.3997500	-0.1847800	-0.0843900	-0.0905800	-0.1793900	-0.0061300	0.8415800	-0.4153500	0.0365700	0.4015200	-0.4093200	-0.0982700	-0.0842800	-0.3922300	0.0705300	-0.1434000	-0.4478300	0.0619600	-0.1420000	-0.4466900	-0.1268300	-0.1186300	-0.3759800	0.0658900	-0.1529700	-0.1503000	0.0570500	-0.1510400	-0.1498400	-0.1192800	-0.1268300	-0.1893100
31	0.5000000	0.1790400	1.3376600	-0.3256400	0.1918000	1.3324500	-0.1593400	-0.0483800	1.1608800	-0.0123100	-0.0647700	0.8961500	0.0486500	0.1828000	1.3407500	-0.4931300	-0.0837200	1.1681100	-0.6095300	-0.1352600	0.9243600	-0.6570600	-0.0033700	0.8301800	-0.3022800	0.0040300	0.8341600	-0.1880900	0.0415600	0.3968900	-0.1863300	-0.0867400	-0.0868800	-0.1799800	-0.0027700	0.8257500	-0.4171300	0.0345200	0.3997800	-0.4111400	-0.1011400	-0.0846200	-0.3900800	0.0674800	-0.1428900	-0.4484800	0.0581300	-0.1413300	-0.4476700	-0.1312600	-0.1192200	-0.3724800	0.0621400	-0.1537000	-0.1526200	0.0533600	-0.1518100	-0.1521300	-0.1202000	-0.1228000	-0.1902700
32	0.5166667	0.1894800	1.3309400	-0.3241000	0.2015100	1.3256600	-0.1576800	-0.0440200	1.1581100	-0.0157000	-0.0629700	0.8946500	0.0472300	0.1940000	1.3341700	-0.4916900	-0.0770200	1.1649000	-0.6098500	-0.1372200	0.9204700	-0.6543700	-0.0045600	0.8371900	-0.3023500	0.0005000	0.8382200	-0.1887500	0.0483200	0.3953700	-0.1861900	-0.0876700	-0.0871300	-0.1839700	-0.0016400	0.8362700	-0.4165400	0.0404800	0.4008100	-0.4118900	-0.1033900	-0.0874200	-0.3911500	0.0582000	-0.1432000	-0.4456300	0.0494500	-0.1417900	-0.4444600	-0.1322900	-0.1221200	-0.3738500	0.0574800	-0.1510800	-0.1482700	0.0491900	-0.1490900	-0.1482100	-0.1219400	-0.1228500	-0.1961800
33	0.5333333	0.1971200	1.3233300	-0.3253800	0.2099600	1.3183000	-0.1580900	-0.0379500	1.1556500	-0.0175900	-0.0590400	0.8890800	0.0441300	0.2009900	1.3264000	-0.4938800	-0.0702100	1.1579100	-0.6082800	-0.1291800	0.9130800	-0.6540700	-0.0058000	0.8346400	-0.3020900	-0.0007700	0.8355700	-0.1886100	0.0555900	0.3901800	-0.1859900	-0.0837000	-0.0834200	-0.1809700	-0.0028800	0.8335900	-0.4161800	0.0406200	0.3975700	-0.4125400	-0.1058800	-0.0866500	-0.3909400	0.0621800	-0.1427200	-0.4456500	0.0527600	-0.1410500	-0.4451900	-0.1370900	-0.1226800	-0.3751700	0.0669700	-0.1513700	-0.1531800	0.0583000	-0.1495600	-0.1527500	-0.1171500	-0.1201900	-0.1907600
34	0.5500000	0.2019100	1.3131900	-0.3255100	0.2167700	1.3092100	-0.1580600	-0.0289200	1.1472400	-0.0196400	-0.0522500	0.8811900	0.0402000	0.2037300	1.3151500	-0.4942800	-0.0655100	1.1444800	-0.6074900	-0.1174400	0.9011900	-0.6523500	-0.0081400	0.8327300	-0.3020200	-0.0016600	0.8336700	-0.1888900	0.0613400	0.3878000	-0.1848900	-0.0862400	-0.0855100	-0.1802100	-0.0067100	0.8315000	-0.4158200	0.0418600	0.3954300	-0.4120900	-0.1052700	-0.0852400	-0.3932400	0.0516000	-0.1433700	-0.4520800	0.0435400	-0.1413600	-0.4508100	-0.1334700	-0.1189700	-0.3754400	0.0630200	-0.1521300	-0.1500300	0.0546500	-0.1504200	-0.1496800	-0.1238400	-0.1231700	-0.1930800
35	0.5666667	0.2116800	1.3025800	-0.3258200	0.2248800	1.2987600	-0.1600000	-0.0234500	1.1370200	-0.0210700	-0.0437400	0.8695000	0.0358200	0.2148000	1.3043300	-0.4928700	-0.0566500	1.1334300	-0.6065500	-0.1111500	0.8880900	-0.6468300	-0.0115100	0.8260100	-0.3022500	-0.0057500	0.8266600	-0.1883200	0.0719100	0.3864600	-0.1865300	-0.0881200	-0.0828200	-0.1851900	-0.0092700	0.8251700	-0.4168200	0.0463000	0.3920000	-0.4153000	-0.1022000	-0.0870400	-0.3907200	0.0549500	-0.1425800	-0.4501300	0.0457100	-0.1408900	-0.4495800	-0.1342400	-0.1216800	-0.3708500	0.0660800	-0.1506600	-0.1475200	0.0578200	-0.1488300	-0.1473800	-0.1239500	-0.1205900	-0.1984000
36	0.5833333	0.2190800	1.2923500	-0.3253100	0.2321100	1.2877000	-0.1589900	-0.0122700	1.1205900	-0.0232700	-0.0296900	0.8529000	0.0310000	0.2224500	1.2950200	-0.4928700	-0.0479100	1.1219200	-0.6044500	-0.0951900	0.8702200	-0.6424700	-0.0115800	0.8261700	-0.3022800	-0.0042200	0.8256100	-0.1875700	0.0807800	0.3808800	-0.1870100	-0.0893600	-0.0867600	-0.1866000	-0.0107800	0.8259300	-0.4176900	0.0472200	0.3858800	-0.4160500	-0.1064200	-0.0904300	-0.3900800	0.0611100	-0.1428800	-0.4462700	0.0525700	-0.1417000	-0.4455100	-0.1423400	-0.1256100	-0.3720300	0.0698700	-0.1502300	-0.1534100	0.0611100	-0.1488600	-0.1529900	-0.1283500	-0.1254800	-0.1977300
